<?xml version="1.0" encoding="UTF-8" standalone="no"?>
<svg
   xmlns:dc="http://purl.org/dc/elements/1.1/"
   xmlns:cc="http://creativecommons.org/ns#"
   xmlns:rdf="http://www.w3.org/1999/02/22-rdf-syntax-ns#"
   xmlns:svg="http://www.w3.org/2000/svg"
   xmlns="http://www.w3.org/2000/svg"
   viewBox="0 0 42.666668 42.666668"
   height="42.666668"
   width="42.666668"
   xml:space="preserve"
   id="svg2"
   version="1.1"><metadata
     id="metadata8"><rdf:RDF><cc:Work
         rdf:about=""><dc:format>image/svg+xml</dc:format><dc:type
           rdf:resource="http://purl.org/dc/dcmitype/StillImage" /></cc:Work></rdf:RDF></metadata><defs
     id="defs6" /><g
     transform="matrix(1.3333333,0,0,-1.3333333,0,42.666667)"
     id="g10"><g
       id="g12"><path
         id="path14"
         style="fill:#fff72a;fill-opacity:1;fill-rule:nonzero;stroke:none"
         d="M 0,32 H 32 V 0 H 0 Z" /></g><g
       transform="translate(0,20)"
       id="g16"><path
         id="path18"
         style="fill:#35b5c1;fill-opacity:1;fill-rule:nonzero;stroke:none"
         d="M 7.807288,-9.999996 H 4.291664 L 10.244786,2 h 4.453124 l 1.968748,-11.999996 h -3.515623 l -1.171874,8.695309 h -0.09375 z m 0.140624,4.734373 h 6.609373 L 14.135409,-7.703121 H 7.526037 Z M 17.526522,-0.625 17.971834,2 H 28.401518 L 27.956205,-0.625 H 24.346832 L 22.799957,-9.999996 H 19.589022 L 21.135895,-0.625 Z" /></g><g
       transform="translate(0,20)"
       id="g20"><path
         id="path22"
         style="fill:#f82e62;fill-opacity:1;fill-rule:nonzero;stroke:none"
         d="M 6.515624,-9.999996 H 3 L 8.953123,2 h 4.453123 l 1.968749,-11.999996 h -3.515623 l -1.171875,8.695309 h -0.09375 z m 0.140625,4.734373 h 6.609372 L 12.843746,-7.703121 H 6.234374 Z M 16.234859,-0.625 16.68017,2 H 27.109854 L 26.664543,-0.625 H 23.055168 L 21.508295,-9.999996 H 18.297358 L 19.844231,-0.625 Z" /></g></g></svg>